<svg xmlns="http://www.w3.org/2000/svg" version="1.1" xlink="http://www.w3.org/1999/xlink" xmlns:svgjs="http://svgjs.com/svgjs" width="100%" height="100%" viewBox="3.1290016174316406 3.1199951171875 93.74600219726562 93.7540054321289"><g fill="#15b761"><path d="M77.664 74.859c-.742 4.008-1.629 7.914-2.762 11.195-1.258 3.637-2.867 6.57-4.777 8.375-1.695 1.602-3.644 2.445-5.836 2.445-5.797 0-10-4.757-12.797-11.418-1.945-4.636-3.32-10.133-4.613-14.605-1.29 4.477-2.664 9.97-4.613 14.605-2.797 6.664-7 11.418-12.797 11.418-2.196 0-4.141-.843-5.836-2.445-1.91-1.805-3.524-4.738-4.778-8.375-2.941-8.508-4.195-21.18-5.664-28.973-.414-2.2-1.242-4.648-1.336-4.926-5.343-5.133-8.726-12.602-8.726-20.91 0-15.586 11.867-28.125 26.34-28.125 6.66 0 12.758 2.645 17.41 7.024C51.53 5.76 57.629 3.12 64.289 3.12c14.234 0 25.949 12.133 26.332 27.355a24.96 24.96 0 0 0-6.688-3.836C81.992 16.811 73.98 9.37 64.288 9.37c-5.972 0-11.324 2.852-14.992 7.325a3.122 3.122 0 0 1-4.836 0c-3.664-4.477-9.02-7.325-14.992-7.325-11.156 0-20.09 9.864-20.09 21.875 0 6.559 2.656 12.457 6.895 16.484.984.934 2.054 3.32 2.777 6.778 1.266 6.023 2.27 15.969 4.223 24.242.851 3.613 1.87 6.89 3.238 9.254.84 1.449 1.656 2.617 2.96 2.617 1.434 0 2.587-.719 3.59-1.774 1.387-1.464 2.485-3.523 3.446-5.816 1.973-4.695 3.305-10.32 4.606-14.723 1.039-3.516 2.156-6.336 3.351-7.793 0 0 2.395-3.648 4.836 0 1.047 1.57 2.313 4.277 3.352 7.793 1.3 4.402 2.632 10.023 4.605 14.723.961 2.289 2.055 4.352 3.445 5.816 1.004 1.055 2.157 1.774 3.59 1.774 1.305 0 2.117-1.168 2.961-2.617 1.367-2.364 2.383-5.641 3.238-9.254.309-1.305.594-2.653.86-4.02 1.195.176 2.414.266 3.66.266.898 0 1.79-.047 2.664-.14zM75 28.125c12.07 0 21.875 9.805 21.875 21.875S87.07 71.875 75 71.875 53.125 62.07 53.125 50 62.93 28.125 75 28.125zm0 6.25c-8.625 0-15.625 7-15.625 15.625s7 15.625 15.625 15.625 15.625-7 15.625-15.625-7-15.625-15.625-15.625zm-3.125 18.75H68.75a3.124 3.124 0 1 1 0-6.25h3.125V43.75a3.124 3.124 0 1 1 6.25 0v3.125h3.125a3.124 3.124 0 1 1 0 6.25h-3.125v3.125a3.124 3.124 0 1 1-6.25 0z" fill-rule="evenodd"></path></g></svg>
