<svg width="400" height="379" xmlns="http://www.w3.org/2000/svg">
 <g>
  <title>Layer 1</title>
  <g id="_1" data-name="1">
   <path id="svg_1" d="m188.14999,379.39001a43.85,43.85 0 0 1 -13.10001,-2c-18.21999,-5.69 -29.87,-21.63998 -29.68999,-40.62c0.15999,-17.35001 -3.15001,-32.5 -9.83,-45c-8.19,-15.32999 -21.83,-27.13 -40.55,-35.08002a15,15 0 1 1 11.72,-27.68999c45.39999,19.26001 69.14,56.59999 68.64999,107.99998a12.28,12.28 0 0 0 22.33,7c28.34,-41.70999 3.47,-87.63 3.22,-88.08998a15,15 0 0 1 13.12,-22.26999l141.64001,0a14.22,14.22 0 0 0 0,-28.43001l-20.45001,0a15,15 0 1 1 0,-30a14.2,14.2 0 0 0 14.20999,-14.21001a14.23,14.23 0 0 0 -14.20999,-14.21001l-20.44,0a15,15 0 0 1 0,-30a14.21,14.21 0 1 0 0,-28.42l-20.44998,0a15,15 0 0 1 0,-30a14.21,14.21 0 1 0 0,-28.42001l-86.65002,0a111.69,111.69 0 0 0 -39.06999,7l-67.49999,25.07a15,15 0 0 1 -10.45,-28.02l67.5,-25.07a141.5,141.5 0 0 1 49.51999,-8.93l86.64999,0a44.25,44.25 0 0 1 40,63a44.27,44.27 0 0 1 20.45001,58.42999a44.27,44.27 0 0 1 20.44,58.42002a44.21,44.21 0 0 1 -19.59,83.83998l-119.64001,0c6.77002,23.10999 11.22998,60.84998 -13.47998,97.22a41.21,41.21 0 0 1 -34.35001,18.48001z"/>
   <path id="svg_2" d="m100.87,257.85001l-85.87,0a15,15 0 0 1 -15,-14.99998l0,-205.64001a15,15 0 0 1 15,-15l85.87,0a15,15 0 0 1 15,15l0,205.64001a15,15 0 0 1 -15,14.99998zm-70.83999,-29.99998l55.83999,0l0,-175.64001l-55.87,0l0.03001,175.64001z"/>
  </g>
 </g>
</svg>
