<svg width="400" height="379" xmlns="http://www.w3.org/2000/svg">
 <g> 
  <title>Layer 1</title>
  <g id="_1" data-name="1">
   <path id="svg_1" d="m294.32001,379.38388l-86.65002,0a141.5,141.5 0 0 1 -49.52,-8.89999l-67.49999,-25.07001a15,15 0 0 1 10.45001,-28.12l67.48998,25.07001a111.79,111.79 0 0 0 39.08,7l86.64999,0a14.21,14.21 0 1 0 0,-28.42001a15,15 0 0 1 0,-30l20.45001,0a14.21,14.21 0 1 0 0,-28.42001a15,15 0 0 1 0,-30l20.44,0a14.21,14.21 0 0 0 10.04999,-24.25998a14.08,14.08 0 0 0 -10.04999,-4.16a15,15 0 0 1 0,-30l20.45001,0a14.21,14.21 0 0 0 10,-24.26001a14.09,14.09 0 0 0 -10,-4.17l-141.64001,0a15,15 0 0 1 -13.14999,-22.25a100.2,100.2 0 0 0 9.20001,-29.33c3.38998,-21.87 -0.79001,-41.63999 -12.42001,-58.75999a12.28,12.28 0 0 0 -22.33,7c0.49001,51.38 -23.25,88.72 -68.64999,108a15,15 0 1 1 -11.71999,-27.61c18.71999,-8 32.35999,-19.74999 40.55,-35.07999c6.67999,-12.51001 10,-27.65 9.83,-45.00001c-0.15001,-18.96 11.53999,-34.96 29.71999,-40.62s36.81,0.78 47.45001,16.46c24.70999,36.36 20.25,74.09999 13.47998,97.21l119.68002,0a44.21,44.21 0 0 1 19.59,83.83999a44.27,44.27 0 0 1 -20.44,58.42a44.27,44.27 0 0 1 -20.44998,58.42999a44.23,44.23 0 0 1 -40,63l-0.04001,0.00003z"/>
   <path id="svg_2" d="m100.87,357.17386l-85.87,0a15,15 0 0 1 -15,-15l0,-205.62999a15,15 0 0 1 15,-14.99999l85.87,0a15,15 0 0 1 15,14.99999l0,205.62999a15,15 0 0 1 -15,15zm-70.83999,-30l55.83999,0l0,-175.62999l-55.87,0l0.03001,175.62999z"/>
  </g>
 </g>
</svg>
