<?xml version="1.0" encoding="UTF-8"?>
<svg xmlns="http://www.w3.org/2000/svg" width="43" height="46" viewBox="0 0 43 46" fill="none">
  <path d="M39.1854 3.80103C34.7413 -0.605311 28.1105 -0.996663 23.2821 2.10855C22.4212 2.66242 21.3071 2.6626 20.4458 2.10855C15.5516 -1.03872 8.96014 -0.539713 4.58342 3.75969C0.261467 8.00504 -0.321846 14.3691 2.40938 19.1787C4.64159 23.1102 5.99177 27.2867 6.4224 31.5921C6.42858 31.655 6.38061 31.3646 7.23804 36.2349C7.8039 40.0358 10.014 43.3551 13.303 45.3431C15.6092 46.7122 18.5605 45.2626 18.8632 42.5715L20.0567 31.9539C20.1898 30.6895 21.2191 29.7331 22.4586 29.7293C23.6946 29.7293 24.7241 30.6561 24.8541 31.8915C24.8541 31.8915 26.0522 42.5523 26.0531 42.5615C26.1813 43.7022 26.841 44.7476 27.8188 45.3499C28.7547 45.9264 30.2405 46.1689 31.229 45.5669C34.6873 43.4556 36.969 39.7867 37.3339 35.7515C37.755 31.9762 37.732 32.2012 37.7345 32.1504C37.9622 27.5969 39.2259 23.1273 41.4906 18.8659C44.0172 14.1098 43.3732 7.95295 39.1854 3.80103ZM27.7011 16.258V14.4239H41.0786C40.9901 15.0471 40.848 15.6608 40.6555 16.258H27.7011ZM2.64841 14.4239H16.0268V16.258H3.07091C2.87832 15.6609 2.73683 15.0474 2.64841 14.4239ZM17.8167 17.1529V13.529V11.7578H25.9112V13.529V17.1529V18.9537H17.8167V17.1529ZM13.389 1.87435C15.5583 1.84535 17.6652 2.44844 19.4776 3.61408C20.9287 4.54722 22.7989 4.5474 24.2502 3.61408C26.0037 2.4863 28.0942 1.84687 30.3391 1.87435C36.1945 1.95176 41.0608 6.77675 41.1866 12.6299V12.634H27.701V10.8629C27.701 10.3687 27.3002 9.96797 26.806 9.96797H16.9218C16.4275 9.96797 16.0268 10.3687 16.0268 10.8629V12.634H2.54245C2.6604 6.73675 7.40852 1.95346 13.389 1.87435ZM35.9482 32.0335C35.4273 36.697 35.5768 35.3192 35.552 35.5817C35.243 39.0309 33.3073 42.1695 30.3678 43.9952C29.2047 44.4034 27.9574 43.6238 27.8335 42.378C27.8317 42.3627 26.6795 32.1091 26.6334 31.6979C26.4079 29.5553 24.6131 27.9394 22.4585 27.9394H22.4453C20.2978 27.9461 18.5056 29.5915 18.2773 31.7602C17.5303 38.4067 17.0848 42.3699 17.0828 42.3877C16.9265 43.7738 15.3988 44.5185 14.2288 43.8114C11.3947 42.098 9.49128 39.2365 9.00668 35.9604C8.97348 35.7395 9.17851 36.9344 8.19991 31.3803C7.74072 26.8368 6.31627 22.4346 3.96583 18.2949C3.91939 18.2133 3.87527 18.1304 3.83106 18.0477H16.0268V19.8486C16.0268 20.3428 16.4275 20.7435 16.9218 20.7435H26.8061C27.3003 20.7435 27.7011 20.3428 27.7011 19.8486V18.0477H39.8986C37.5214 22.528 36.1924 27.233 35.9482 32.0335Z" fill="url(#paint0_linear_170_36)"></path>
  <defs>
    <linearGradient id="paint0_linear_170_36" x1="0.749696" y1="23.0001" x2="42.9781" y2="23.0001" gradientUnits="userSpaceOnUse">
      <stop stop-color="#00A0E3"></stop>
      <stop offset="1" stop-color="#1C4E95"></stop>
    </linearGradient>
  </defs>
</svg>
