<?xml version="1.0"?><svg xmlns="http://www.w3.org/2000/svg" xmlns:xlink="http://www.w3.org/1999/xlink" version="1.1" viewBox="0 0 512 512" style="enable-background:new 0 0 512 512;" xml:space="preserve"><g id="_x34_2_x2C__Tooth_whitening_x2C__tooth_hygien_x2C__dental_symbol_x2C__tooth_shine_x2C__shine_x2C__shining"><g><path d="M271.281,69.684c-29.232,11.438-61.485,11.437-90.813-0.003C96.54,36.915,0.332,93.29,0.001,179.988    c-0.227,60.28,59.284,114.349,69.137,211.038c3.693,36.222,7.007,48.313,13.063,86.954c3.31,19.712,21.16,34.019,42.444,34.019    c18.964,0,35.46-11.416,41.049-28.414l37.214-113.484c7.25-22.041,38.642-22.324,45.935-0.009l37.219,113.5    c5.586,16.991,22.082,28.407,41.046,28.407c21.29,0,39.14-14.308,42.447-34.032c7.448-47.521,9.276-49.809,13.06-86.941    c9.762-95.776,69.361-151.148,69.138-211.036c0-0.001,0-0.001,0-0.001C451.429,94.866,356.925,36.244,271.281,69.684z     M362.72,388.998c-3.591,35.245-6.898,47.479-12.89,85.673c-1.656,9.879-11.424,17.328-22.721,17.328    c-10.145,0-19.21-6.025-22.045-14.646l-37.213-113.483c-13.219-40.453-70.582-40.627-83.943-0.01l-37.215,113.486    c-2.837,8.628-11.903,14.653-22.047,14.653c-11.294,0-21.062-7.45-22.718-17.318c-7.404-47.195-9.193-49.396-12.892-85.683    c-10.059-98.697-69.233-156.25-69.034-208.934c0.276-72.403,82.108-119.508,153.195-91.752    c34.025,13.271,71.448,13.271,105.366-0.001c71.459-27.901,152.917,19.728,153.192,91.752    C431.951,232.703,372.758,290.507,362.72,388.998z"/><path d="M193.397,176.075c-26.861-7.417-30.789-11.345-38.207-38.206c-2.692-9.747-16.584-9.757-19.278,0    c-7.417,26.861-11.345,30.789-38.207,38.206c-9.746,2.691-9.757,16.584,0,19.279c26.861,7.417,30.789,11.345,38.207,38.206    c2.702,9.782,16.58,9.77,19.278,0c7.418-26.861,11.346-30.789,38.207-38.206C203.142,192.663,203.154,178.77,193.397,176.075z"/><path d="M504.662,45.545c-26.861-7.417-30.789-11.345-38.207-38.206c-1.197-4.335-5.142-7.338-9.639-7.338    s-8.442,3.003-9.639,7.338c-7.418,26.861-11.346,30.789-38.207,38.206c-4.335,1.197-7.338,5.142-7.338,9.64    s3.003,8.442,7.338,9.64c26.86,7.416,30.788,11.344,38.206,38.206c1.197,4.335,5.142,7.338,9.639,7.338    c4.498,0,8.442-3.003,9.639-7.338c7.417-26.862,11.345-30.79,38.206-38.206c4.335-1.197,7.338-5.142,7.338-9.64    S508.997,46.742,504.662,45.545z"/></g></g><g id="Layer_1"/></svg>