<?xml version="1.0"?><!DOCTYPE svg  PUBLIC '-//W3C//DTD SVG 1.1//EN'  'http://www.w3.org/Graphics/SVG/1.1/DTD/svg11.dtd'><svg viewBox="0 0 800 800" xmlns="http://www.w3.org/2000/svg" xmlns:xlink="http://www.w3.org/1999/xlink"><style>:root>svg{display:none}:root>svg:target{display:block}</style><svg viewBox="0 0 24 24" id="calendar" xmlns="http://www.w3.org/2000/svg"><path class="acls-1" d="M20 2h-1V1a1 1 0 00-2 0v1H7V1a1 1 0 00-2 0v1H4a4 4 0 00-4 4v14a4 4 0 004 4h16a4 4 0 004-4V6a4 4 0 00-4-4zm2 18a2 2 0 01-2 2H4a2 2 0 01-2-2V6a2 2 0 012-2h1v1a1 1 0 002 0V4h10v1a1 1 0 002 0V4h1a2 2 0 012 2z"/><path class="acls-1" d="M19 7H5a1 1 0 000 2h14a1 1 0 000-2zM7 12H5a1 1 0 000 2h2a1 1 0 000-2zM7 17H5a1 1 0 000 2h2a1 1 0 000-2zM13 12h-2a1 1 0 000 2h2a1 1 0 000-2zM13 17h-2a1 1 0 000 2h2a1 1 0 000-2zM19 12h-2a1 1 0 000 2h2a1 1 0 000-2zM19 17h-2a1 1 0 000 2h2a1 1 0 000-2z"/></svg><svg viewBox="0 0 24 24" id="close" xmlns="http://www.w3.org/2000/svg"><path d="M23.361 21.15l-9.302-9.29 9.303-9.184.317-.317c.317-.422.422-.95.211-1.372-.211-.422-.529-.845-1.057-.95-.529-.106-1.057 0-1.586.528l-9.302 9.29-6.66-6.651L2.643.564C2.22.038 1.69-.068 1.163.038.634.142.21.565 0 1.092v.74c.106.422.423.738.74 1.055l9.09 9.079-9.09 9.078c-.317.317-.634.634-.74 1.056v.633c.211.634.529 1.056 1.163 1.267h.634c.423-.106.74-.422 1.057-.633l9.091-9.079 9.09 9.079c.318.316.53.527.952.633h.635l.21-.106c.53-.21.952-.738.952-1.372.106-.633-.105-.95-.422-1.372z"/></svg><svg viewBox="0 0 32 32" id="comment" xmlns="http://www.w3.org/2000/svg"><path d="M16 26c-1.168 0-2.296-.136-3.38-.367l-4.708 2.83.063-4.639C4.366 21.654 2 18.066 2 14 2 7.373 8.268 2 16 2s14 5.373 14 12c0 6.628-6.268 12-14 12zm0-26C7.164 0 0 6.269 0 14c0 4.419 2.345 8.354 6 10.919V32l7.009-4.253c.97.16 1.968.253 2.991.253 8.836 0 16-6.268 16-14 0-7.731-7.164-14-16-14zm7 11H9a1 1 0 000 2h14a1 1 0 100-2zm-2 6H11a1 1 0 100 2h10a1 1 0 100-2z" fill-rule="evenodd"/></svg><svg viewBox="0 0 400 379" id="dislike" xmlns="http://www.w3.org/2000/svg"><g data-name="1"><path d="M188.15 379.39a43.85 43.85 0 01-13.1-2c-18.22-5.69-29.87-21.64-29.69-40.62.16-17.35-3.15-32.5-9.83-45-8.19-15.33-21.83-27.13-40.55-35.08A15 15 0 11106.7 229c45.4 19.26 69.14 56.6 68.65 108a12.28 12.28 0 0022.33 7c28.34-41.71 3.47-87.63 3.22-88.09a15 15 0 0113.12-22.27h141.64a14.22 14.22 0 000-28.43h-20.45a15 15 0 110-30A14.2 14.2 0 00349.42 161a14.23 14.23 0 00-14.21-14.21h-20.44a15 15 0 010-30 14.21 14.21 0 100-28.42h-20.45a15 15 0 010-30 14.21 14.21 0 100-28.42h-86.65a111.69 111.69 0 00-39.07 7l-67.5 25.07A15 15 0 0190.65 34l67.5-25.07A141.5 141.5 0 01207.67 0h86.65a44.25 44.25 0 0140 63 44.27 44.27 0 0120.45 58.43 44.27 44.27 0 0120.44 58.42 44.21 44.21 0 01-19.59 83.84H235.98c6.77 23.11 11.23 60.85-13.48 97.22a41.21 41.21 0 01-34.35 18.48z"/><path d="M100.87 257.85H15a15 15 0 01-15-15V37.21a15 15 0 0115-15h85.87a15 15 0 0115 15v205.64a15 15 0 01-15 15zm-70.84-30h55.84V52.21H30l.03 175.64z"/></g></svg><svg viewBox="0 0 16 16" id="dots" xmlns="http://www.w3.org/2000/svg"><path d="M4 8a2 2 0 11-4 0 2 2 0 014 0zM10 8a2 2 0 11-4 0 2 2 0 014 0zM14 10a2 2 0 100-4 2 2 0 000 4z"/></svg><svg viewBox="0 0 512 512" id="email" xmlns="http://www.w3.org/2000/svg"><path d="M256 352c-16.53 0-33.06-5.422-47.16-16.41L0 173.2V400c0 26.5 21.49 48 48 48h416c26.51 0 48-21.49 48-48V173.2L303.2 335.7C289.1 346.6 272.5 352 256 352zM16.29 145.3l212.2 165.1c16.19 12.6 38.87 12.6 55.06 0l212.2-165.1C505.1 137.3 512 125 512 112c0-26.51-21.5-48-48-48H48C21.49 64 0 85.49 0 112c0 13 6.01 25.3 16.29 33.3z"/></svg><svg viewBox="0 0 400 379" id="like" xmlns="http://www.w3.org/2000/svg"><g data-name="1"><path d="M294.32 379.384h-86.65a141.5 141.5 0 01-49.52-8.9l-67.5-25.07a15 15 0 0110.45-28.12l67.49 25.07a111.79 111.79 0 0039.08 7h86.65a14.21 14.21 0 100-28.42 15 15 0 010-30h20.45a14.21 14.21 0 100-28.42 15 15 0 010-30h20.44a14.21 14.21 0 0010.05-24.26 14.08 14.08 0 00-10.05-4.16 15 15 0 010-30h20.45a14.21 14.21 0 0010-24.26 14.09 14.09 0 00-10-4.17H214.02a15 15 0 01-13.15-22.25 100.2 100.2 0 009.2-29.33c3.39-21.87-.79-41.64-12.42-58.76a12.28 12.28 0 00-22.33 7c.49 51.38-23.25 88.72-68.65 108a15 15 0 11-11.72-27.61c18.72-8 32.36-19.75 40.55-35.08 6.68-12.51 10-27.65 9.83-45-.15-18.96 11.54-34.96 29.72-40.62s36.81.78 47.45 16.46c24.71 36.36 20.25 74.1 13.48 97.21h119.68a44.21 44.21 0 0119.59 83.84 44.27 44.27 0 01-20.44 58.42 44.27 44.27 0 01-20.45 58.43 44.23 44.23 0 01-40 63h-.04z"/><path d="M100.87 357.174H15a15 15 0 01-15-15v-205.63a15 15 0 0115-15h85.87a15 15 0 0115 15v205.63a15 15 0 01-15 15zm-70.84-30h55.84v-175.63H30l.03 175.63z"/></g></svg><svg viewBox="0 0 24 24" id="location" xmlns="http://www.w3.org/2000/svg"><path d="M12 0C7 0 3 4 3 9c0 6.2 3.4 11.7 8.5 14.9.3.2.7.2 1.1 0 5-3.3 8.4-8.7 8.4-14.9 0-5-4-9-9-9zm0 13c-2.2 0-4-1.8-4-4s1.8-4 4-4 4 1.8 4 4-1.8 4-4 4z"/></svg><svg viewBox="0 0 11 18" id="next" xmlns="http://www.w3.org/2000/svg"><path d="M2 2l6.509 6.628a1 1 0 01-.056 1.454L2 15.714"/></svg><svg viewBox="0 0 512 512" id="phone" xmlns="http://www.w3.org/2000/svg"><path d="M511.2 387l-23.25 100.8c-3.266 14.25-15.79 24.22-30.46 24.22C205.2 512 0 306.8 0 54.5c0-14.66 9.969-27.2 24.22-30.45L125.02.8c14.68-3.402 29.68 4.218 35.78 18.12l46.52 108.5c5.438 12.78 1.77 27.67-8.98 36.45L144.5 207.1c33.98 69.22 90.26 125.5 159.5 159.5l44.08-53.8c8.688-10.78 23.69-14.51 36.47-8.975l108.5 46.51C506.1 357.2 514.6 372.4 511.2 387z"/></svg><svg viewBox="0 0 11 18" id="prev" xmlns="http://www.w3.org/2000/svg"><path d="M8.795 15.714L2.287 9.086a1 1 0 01.055-1.454L8.795 2"/></svg><svg viewBox="0 0 18 18" id="search" xmlns="http://www.w3.org/2000/svg"><circle cx="6" cy="6" r="6" transform="matrix(-1 0 0 1 17 1)"/><path d="M2 16l3-3"/></svg><svg viewBox="0 0 16 14" id="telegram" xmlns="http://www.w3.org/2000/svg"><path d="M1.364 5.794L14.652.092c.606-.305 1.192.163.96 1.196L13.35 13.154c-.158.844-.615 1.044-1.25.655l-3.447-2.833-1.657 1.793c-.193.208-.345.384-.69.384l.235-3.914 6.395-6.423c.28-.277-.06-.413-.434-.16L4.61 8.198 1.2 7.013c-.736-.25-.741-.814.165-1.219z"/></svg><svg viewBox="0 0 512 512" id="time" xmlns="http://www.w3.org/2000/svg"><path d="M256 48C141.1 48 48 141.1 48 256s93.1 208 208 208 208-93.1 208-208S370.9 48 256 48zm17 225H160v-17h96V128h17v145z"/></svg><svg viewBox="0 0 156 160" id="tooth" xmlns="http://www.w3.org/2000/svg"><g clip-path="url(#oclip0)"><path d="M155.645 46.568c-.804 15.227-2.498 30.363-7.691 44.872-4.904 13.699-8.988 27.733-16.152 40.534-.984 1.76-2.106 3.461-2.909 5.301-3.456 7.921-9.53 13.366-16.419 18.246-10.645 7.548-24.299 1.161-26.244-9.754-.863-4.844-1.3-9.769-1.823-14.668-.773-7.248-1.275-14.53-2.245-21.749a56.93 56.93 0 00-2.705-10.383c-1.071-3.195-3.429-3.644-5.89-1.296a14.848 14.848 0 00-4.166 7.926c-1.37 6.581-2.326 13.264-4.004 19.761-1.676 6.484-3.892 12.841-6.138 19.16-1.217 3.424-3.68 6.099-6.407 8.528-6.072 5.407-15.088 3.954-19.992-1.32-9.287-9.987-15.891-21.331-19.087-34.67-2.534-10.571-5.796-20.983-7.981-31.62C2.494 69.386-.068 53.179.668 36.689c.23-3.916.777-7.806 1.636-11.634 1.973-9.376 8.139-15.28 16.628-18.935 7.454-3.209 15.06-4.056 22.922-1.111 5.77 2.16 11.621 4.187 17.57 5.768a180.1 180.1 0 0018.095 3.688c4.318.683 8.426-.634 12.35-2.529a562.544 562.544 0 0114.636-6.81c5.683-2.554 11.683-3.745 17.882-4.366 12.571-1.257 23.852 8.16 27.937 16.502 2.967 6.06 4.085 12.554 4.748 19.156.333 3.35.387 6.725.573 10.15zM8.16 42.01c.011 9.673 1.772 27.144 4.448 39.531 2.414 11.174 5.389 22.226 8.057 33.346a77.459 77.459 0 0015.913 31.581c3.106 3.764 7.453 4.248 10.698.665a24.79 24.79 0 004.54-7.339c3.458-8.678 5.268-17.813 6.878-26.989.87-4.964 1.706-9.956 4.04-14.522 1.83-3.579 4.261-6.596 7.905-8.476 5.9-3.044 12.069-1.333 15.406 4.381a31.567 31.567 0 012.326 5.21c2.494 6.891 3.768 14.06 4.652 21.31.885 7.239 1.608 14.505 2.739 21.704.984 6.256 5.316 8.652 11.346 6.532a17.485 17.485 0 009.244-7.487c6.058-9.852 11.683-19.935 15.668-30.839 2.424-6.629 4.861-13.258 7.167-19.928 6.262-18.115 9.435-36.678 7.724-55.895-.471-5.277-1.289-10.576-4.135-15.132-4.447-7.11-10.341-12.027-19.459-11.544a40.36 40.36 0 00-13.745 2.983c-5.572 2.362-11.057 4.943-16.5 7.593-4.974 2.42-10.166 3.618-15.652 3.052-4.343-.45-8.772-.812-12.95-1.98-8.308-2.321-16.557-4.926-24.665-7.87-8.217-2.982-15.408-.971-22.34 3.437a16.903 16.903 0 00-7.301 10.14A56.281 56.281 0 008.16 42.011z"/><path d="M143.839 42.059c-.301 3.344-.432 6.716-.971 10.021a11.45 11.45 0 01-2.045 4.853 4.598 4.598 0 01-3.384 1.547c-1.605-.054-2.438-1.582-2.526-3.117a40.259 40.259 0 01.165-5.685c.225-2.675.613-5.336.871-8.007.752-7.8-2.449-13.924-8.131-18.968-.837-.743-1.904-1.299-2.543-2.174a4.526 4.526 0 01-1.021-2.898c.201-1.437 1.674-1.904 2.9-1.607 1.626.326 3.172.968 4.551 1.89 8.04 5.994 12.697 13.749 12.134 24.145zM140.772 69.832c.046 2.09-.208 4.043-2.415 5.061a3.29 3.29 0 01-3.998-.757c-1.575-1.675-1.346-3.634-.529-5.621 1.133-2.757 2.428-3.948 4.145-3.709 1.934.27 2.74 1.724 2.797 5.026z"/></g><defs><clipPath id="oclip0"><path transform="translate(.134 .29)" d="M0 0h155.552v158.834H0z"/></clipPath></defs></svg><svg viewBox="0 0 28 20" id="view" xmlns="http://www.w3.org/2000/svg"><path d="M14 1C7.934 1 2.798 4.776 1 10c1.798 5.224 6.934 9 13 9s11.202-3.776 13-9c-1.798-5.224-6.934-9-13-9z"/><circle r="5" cy="10" cx="14"/></svg><svg viewBox="0 0 15 14" id="whatsapp" xmlns="http://www.w3.org/2000/svg"><path d="M7.664 0a7 7 0 11-3.52 13.052l-2.633.718a.5.5 0 01-.614-.614l.716-2.634A7 7 0 017.663 0zM5.278 3.71l-.14.006a.673.673 0 00-.26.07.905.905 0 00-.206.16c-.084.078-.131.147-.182.213-.26.337-.399.75-.397 1.175.002.343.091.677.231.99.287.63.758 1.299 1.38 1.918.15.15.296.3.454.439a6.614 6.614 0 002.688 1.432l.398.06c.13.008.259-.002.39-.008.203-.01.402-.066.582-.162.092-.047.181-.099.268-.154 0 0 .03-.02.088-.063.094-.07.153-.12.23-.202a.803.803 0 00.148-.211 1.95 1.95 0 00.132-.513c.016-.139.011-.214.01-.261-.004-.075-.066-.153-.134-.186l-.407-.182s-.61-.266-.982-.435a.348.348 0 00-.123-.029.338.338 0 00-.264.09c-.004-.002-.05.038-.557.65a.245.245 0 01-.257.092.999.999 0 01-.134-.046l-.177-.076a4.217 4.217 0 01-1.102-.702c-.088-.077-.17-.161-.254-.242a4.407 4.407 0 01-.714-.888l-.041-.066a.646.646 0 01-.072-.144c-.026-.103.043-.185.043-.185s.17-.187.25-.287a2.99 2.99 0 00.183-.261c.083-.133.109-.27.065-.376a58.28 58.28 0 00-.607-1.428c-.042-.094-.164-.161-.275-.175a3.107 3.107 0 00-.114-.01 2.369 2.369 0 00-.282.002l.14-.006.001.001z"/></svg></svg>