<?xml version="1.0"?><svg xmlns="http://www.w3.org/2000/svg" xmlns:xlink="http://www.w3.org/1999/xlink" version="1.1" viewBox="0 0 435.436 510" style="enable-background:new 0 0 435.436 510;" xml:space="preserve"><g id="_x30_4_x2C__toothbrush_x2C__dental_hygiene_x2C__healthcare_and_medical_x2C__dental_care_x2C__toothpaste_x2C__tooth"><g><g><g id="XMLID_70_"><path id="XMLID_84_" style="fill:#5596FB;" d="M219.414,392.826h99.499c5.523,0,10-4.478,10-10V233.695c0-5.523-4.477-10-10-10      h-90.382c-5.522,0-10,4.477-10,10c0,5.523,4.478,10,10,10h80.382v129.131h-89.499c-5.522,0-10,4.478-10,10      C209.414,388.349,213.892,392.826,219.414,392.826z"/><path id="XMLID_83_" style="fill:#5596FB;" d="M422.853,447.392H214.974c-5.522,0-10,4.478-10,10s4.478,10,10,10h40.679V500      c0,5.522,4.478,10,10,10c5.522,0,10-4.478,10-10v-32.608h33.261V500c0,5.522,4.478,10,10,10c5.523,0,10-4.478,10-10v-32.608      h33.261V500c0,5.522,4.478,10,10,10c5.522,0,10-4.478,10-10v-32.608h40.679c5.522,0,10-4.478,10-10      S428.375,447.392,422.853,447.392z"/><g id="XMLID_74_"><path id="XMLID_78_" style="fill:#283954;" d="M435.417,499.396c-0.356-5.864-21.253-350.756-21.324-351.67       c-0.141-1.89-0.829-3.665-1.824-5.059L360.87,70.708V10c0-5.523-4.477-10-10-10h-63.913c-5.522,0-10,4.477-10,10v60.708       l-51.398,71.958c-1.108,1.551-1.742,3.463-1.844,5.208L202.41,499.396c-0.349,5.75,4.227,10.604,9.981,10.604h213.044       C431.197,510,435.766,505.14,435.417,499.396z M292.103,83.913h53.62l38.975,54.565H253.128L292.103,83.913z M296.957,20       h43.913v43.913h-43.913V20z M223.016,490l20.093-331.521h151.61L414.812,490H223.016z"/><path id="XMLID_75_" style="fill:#283954;" d="M124.662,149.13H62.609v-22.609h53.913c5.522,0,10-4.477,10-10       c0-5.523-4.478-10-10-10H62.609V83.913h53.913c5.522,0,10-4.477,10-10c0-5.523-4.478-10-10-10H62.609V41.304h53.913       c5.522,0,10-4.477,10-10s-4.478-10-10-10H60.962C56.779,8.934,45.07,0,31.305,0C14.043,0,0,14.043,0,31.304v202.391       c0,1.273,0.243,2.533,0.715,3.714l20.59,51.473v189.814c0,17.262,14.043,31.305,31.305,31.305       c17.261,0,31.304-14.043,31.304-31.305V286.956c0-1.272-0.243-2.532-0.715-3.714L62.609,231.77V169.13h62.053       c5.522,0,10-4.477,10-10C134.662,153.607,130.185,149.13,124.662,149.13z M63.913,288.882v189.814       c0,6.233-5.071,11.305-11.304,11.305c-6.233,0-11.305-5.071-11.305-11.305V286.956c0-1.272-0.243-2.533-0.715-3.714L20,231.77       V31.304C20,25.071,25.071,20,31.305,20s11.305,5.071,11.305,11.304v202.391c0,1.273,0.243,2.532,0.715,3.714L63.913,288.882z"/></g><path id="XMLID_71_" style="fill:#5596FB;" d="M180.436,127.827c-6.233,0-11.305-5.072-11.305-11.305V52.609      c0-17.261-14.043-31.305-31.305-31.305h-21.304c-5.522,0-10,4.477-10,10v106.523c0,23.135,18.822,41.956,41.957,41.956      c23.135,0,41.956-18.821,41.956-41.956C190.436,132.304,185.959,127.827,180.436,127.827z M148.479,159.783      c-12.106,0-21.956-9.85-21.956-21.956V41.304h11.304c6.233,0,11.305,5.071,11.305,11.305v63.913      c0,13.224,8.243,24.56,19.86,29.139C165.83,153.91,157.827,159.783,148.479,159.783z"/></g></g></g></g><g id="Layer_1"/></svg>