<?xml version="1.0"?><svg xmlns="http://www.w3.org/2000/svg" id="Layer_5" data-name="Layer 5" width="512" height="512" viewBox="0 0 512 512"><defs><style>
      .cls-1 {
        stroke-width: 0px;
      }
    </style></defs><path class="cls-1" d="m489.575,13.491H22.425c-10.159,0-18.425,8.266-18.425,18.425v44.15c0,22.003,10.546,42.335,28.366,55.046v17.973c0,21.965,17.782,39.902,39.591,39.984,11.853.052,23.493-2.859,34.682-8.647,32.033,11.575,67.422,11.514,99.42-.17,32.156,11.743,67.727,11.743,99.883,0,31.998,11.684,67.387,11.745,99.42.17,11.173,5.781,22.798,8.692,34.632,8.647,21.858-.082,39.641-18.02,39.641-39.984v-17.973c17.82-12.71,28.366-33.042,28.366-55.046V31.916c0-10.159-8.266-18.425-18.425-18.425ZM72.052,177.069c-15.266-.058-27.686-12.611-27.686-27.984-.036-2.815.026-22.782,0-25.01,0-24.193,19.683-43.876,43.876-43.876,6.58,0,11.933,5.354,11.933,11.934,0,2.581,0,28.829,0,30.501h-9.479v-6.425c0-3.313-2.687-6-6-6h-24.85c-3.313,0-6,2.687-6,6v24.85c0,3.313,2.687,6,6,6h24.85c3.313,0,6-2.687,6-6v-6.425h9.479v35.616c-9.147,4.563-18.578,6.855-28.123,6.819Zm74.712-96.87h18.699c21.983.259,36.073,20.918,34.596,42.435h-25.517v-6.425c0-3.313-2.687-6-6-6h-24.851c-3.313,0-6,2.687-6,6v6.425h-25.517c-1.57-21.854,13.208-42.37,34.589-42.435Zm199.773,0h18.699c4.768,0,9.313,1.078,13.45,3.027,13.866,6.392,22.275,22.413,21.139,39.407h-25.517v-6.425c0-3.313-2.687-6-6-6h-24.851c-3.313,0-6,2.687-6,6v5.732h-25.517c-1.364-21.171,13.084-41.594,34.596-41.742Zm2.921,42.01h12.851v12.85h-12.851v-12.85Zm-99.883,0h12.85v12.85h-12.85v-12.85Zm18.85-12h-24.85c-3.313,0-6,2.687-6,6v6.425h-25.517c-1.661-22.256,13.822-42.525,34.591-42.434,0,0,18.701,0,18.701,0,20.32-.194,36.098,19.809,34.591,41.742h-25.517v-5.732c0-3.313-2.687-6-6-6Zm-118.733,12h12.851v12.85h-12.851v-12.85Zm-70.996,12.85h-12.85v-12.85h12.85v12.85Zm33.479,34.597v-35.021h25.517v6.425c0,3.313,2.687,6,6,6h24.851c3.313,0,6-2.687,6-6v-6.425h25.517v35.021c-28.372,9.876-59.512,9.876-87.884,0Zm99.884,0v-35.021h25.517v6.425c0,3.313,2.687,6,6,6h24.85c3.313,0,6-2.687,6-6v-7.117h25.517v35.714c-28.372,9.876-59.511,9.876-87.883,0Zm99.883,0v-35.714h25.517v7.117c0,3.313,2.687,6,6,6h24.851c3.313,0,6-2.687,6-6v-6.425h25.517v35.021c-28.372,9.876-59.512,9.876-87.884,0Zm155.692-20.57c0,15.373-12.42,27.927-27.735,27.984-9.525.029-18.943-2.265-28.073-6.819v-35.616h9.479v6.425c0,3.313,2.687,6,6,6h24.85c3.313,0,6-2.687,6-6v-24.85c0-3.313-2.687-6-6-6h-24.85c-3.313,0-6,2.687-6,6v6.425h-9.479c.006-1.546-.004-28.067,0-30.501,0-6.58,5.353-11.934,11.933-11.934,24.193,0,43.876,19.683,43.876,43.876-.015,2.2.011,22.28,0,25.01Zm-34.329-26.876h12.85v12.85h-12.85v-12.85Zm62.695-46.143c0,15.285-6.187,29.595-16.942,39.974-2.415-17.19-13.352-32.792-28.609-41.042-9.353-4.964-20.316-7.786-30.911-6.42-8.961,1.518-16.583,8.548-18.891,17.325-6.904-8.759-16.89-15.146-27.937-17.047-5.056-1.122-20.812-.517-26.178-.659-17.084-.163-32.939,10.692-40.594,25.71-7.649-15.016-23.507-25.876-40.589-25.71-6.438.185-21.693-.635-27.813.975-13.578,2.86-25.158,12.51-31.477,24.734-7.655-15.018-23.509-25.873-40.594-25.71-5.448.145-21.022-.47-26.178.658-11.046,1.901-21.033,8.287-27.937,17.047-2.309-8.776-9.927-15.805-18.887-17.324-10.652-1.371-21.682,1.476-31.067,6.506-15.181,8.263-26.047,23.827-28.456,40.955-10.756-10.379-16.942-24.688-16.942-39.974V31.916c0-3.543,2.882-6.425,6.425-6.425h467.15c3.543,0,6.425,2.882,6.425,6.425v44.15Z"/><path class="cls-1" d="m309.498,362.882c-7.018-7.02-18.438-7.018-25.455,0l-43.508,43.507-12.578-12.577c-11.22-11.281-30.797-3.183-30.727,12.728,0,4.807,1.872,9.328,5.272,12.727l25.305,25.306c6.698,6.981,18.757,6.985,25.456,0,0,0,56.235-56.235,56.235-56.235,7.019-7.018,7.019-18.438,0-25.455Zm-8.484,16.971l-56.235,56.235c-1.134,1.133-2.641,1.757-4.243,1.757s-3.109-.624-4.243-1.757l-25.306-25.306c-3.78-3.687-.99-10.334,4.243-10.24,1.536,0,3.073.585,4.243,1.754l16.82,16.82c2.342,2.344,6.143,2.344,8.484,0l47.75-47.749c5.775-5.403,13.918,2.642,8.486,8.485Z"/><path class="cls-1" d="m502,331.838c-3.313,0-6,2.686-6,6,.275,7.942,11.726,7.94,12,0,0-3.314-2.687-6-6-6Z"/><path class="cls-1" d="m502,355.838c-3.313,0-6,2.687-6,6v4.271c0,3.543-2.882,6.426-6.425,6.426h-144.054c-8.459-24.176-26.484-44.196-49.788-54.883,4.155-3.86,7.617-8.447,10.235-13.477,7.662,14.99,23.504,25.812,40.565,25.652,5.458-.146,21.034.472,26.2-.663,11.038-1.905,21.015-8.289,27.914-17.042,2.311,8.786,9.943,15.816,18.915,17.329,11.411,1.43,23.218-1.856,33.032-7.658,14.153-8.498,24.153-23.442,26.463-39.803,8.966,8.661,14.814,20.11,16.463,32.643.433,3.286,3.463,5.594,6.731,5.167,3.286-.433,5.599-3.446,5.167-6.731-2.45-18.617-12.517-35.257-27.785-46.153v-17.975c0-21.966-17.783-39.903-39.591-39.984-11.853-.052-23.493,2.859-34.682,8.647-32.033-11.575-67.422-11.514-99.42.17-32.156-11.743-67.727-11.743-99.883,0-31.998-11.684-67.387-11.745-99.42-.17-11.173-5.781-22.798-8.692-34.632-8.647-21.857.081-39.641,18.019-39.641,39.984v17.972c-17.82,12.709-28.366,33.042-28.366,55.047v44.149c0,10.16,8.266,18.426,18.425,18.426h140.748c-12.559,57.756,33.594,114.666,92.828,113.973,59.223.696,105.398-56.222,92.827-113.973h140.748c10.159,0,18.425-8.266,18.425-18.426v-4.271c0-3.313-2.687-6-6-6Zm-225.297-44.608c-15.543-3.492-31.962-2.951-47.255,1.494-12.768-8.218-18.151-22.569-17.389-37.332h25.517v6.425c0,3.313,2.687,6,6,6h24.85c3.313,0,6-2.687,6-6v-5.732h25.517c.743,14.318-5.01,28.776-17.389,36.639-1.936-.549-3.884-1.058-5.85-1.494Zm-111.24,6.596h-18.699c-22.087-.311-36.032-20.927-34.589-42.434h25.517v6.425c0,3.313,2.687,6,6,6h24.851c3.313,0,6-2.687,6-6v-6.425h25.517c1.461,21.512-12.58,42.143-34.596,42.434Zm-2.921-42.009h-12.851v-12.85h12.851v12.85Zm99.883,0h-12.85v-12.85h12.85v12.85Zm99.884,0h-12.851v-12.85h12.851v12.85Zm-18.851,12h24.851c3.313,0,6-2.687,6-6v-6.425h25.517c1.453,21.491-12.519,42.136-34.589,42.434,0,0-18.699,0-18.699,0-21.509-.152-35.969-20.616-34.596-41.741h25.517v5.732c0,3.313,2.687,6,6,6Zm96.49-66.86c15.266.057,27.686,12.61,27.686,27.984v25.012c.144,23.676-19.481,43.955-43.876,43.873-6.58,0-11.933-5.352-11.933-11.933-.001-2.571.001-28.836,0-30.501h9.479v6.425c0,3.313,2.687,6,6,6h24.85c3.313,0,6-2.687,6-6v-24.85c0-3.313-2.687-6-6-6h-24.85c-3.313,0-6,2.687-6,6v6.425h-9.479v-35.616c9.147-4.563,18.578-6.855,28.123-6.819Zm-6.644,42.011h12.85v12.85h-12.85v-12.85Zm-33.479-34.597v35.021h-25.517v-6.425c0-3.313-2.687-6-6-6h-24.851c-3.313,0-6,2.687-6,6v7.117h-25.517v-35.714c28.372-9.876,59.512-9.876,87.884,0Zm-99.884,0v35.714h-25.517v-7.117c0-3.313-2.687-6-6-6h-24.85c-3.313,0-6,2.687-6,6v6.425h-25.517v-35.021c28.372-9.876,59.511-9.876,87.883,0Zm-99.883,0v35.021h-25.517v-6.425c0-3.313-2.687-6-6-6h-24.851c-3.313,0-6,2.687-6,6v6.425h-25.517v-35.021c28.372-9.876,59.512-9.876,87.884,0Zm-155.692,20.57c0-15.374,12.42-27.928,27.735-27.984,9.525-.029,18.943,2.265,28.073,6.819v35.616h-9.479v-6.425c0-3.313-2.687-6-6-6h-24.85c-3.313,0-6,2.687-6,6v24.85c0,3.313,2.687,6,6,6h24.85c3.313,0,6-2.687,6-6v-6.425h9.479c-.004,1.536.003,28.075,0,30.501,0,6.58-5.353,11.933-11.933,11.933-18.145,0-33.753-11.071-40.423-26.813-2.223-5.247-3.453-11.013-3.453-17.06v-25.012Zm34.329,26.876h-12.85v-12.85h12.85v12.85Zm87.783,96.718H22.425c-3.543,0-6.425-2.883-6.425-6.426v-44.149c0-15.285,6.186-29.595,16.941-39.974,2.31,16.36,12.306,31.303,26.457,39.803,9.812,5.808,21.625,9.09,33.036,7.664,8.972-1.513,16.609-8.543,18.918-17.33,6.899,8.753,16.875,15.137,27.914,17.042,5.066,1.128,20.824.521,26.2.663,17.06.16,32.903-10.663,40.564-25.652,2.618,5.03,6.08,9.617,10.235,13.477-23.303,10.686-41.329,30.707-49.788,54.883Zm89.521,113.974c-45.646,0-82.781-37.136-82.781-82.781-.44-38.455,28.122-73.469,65.697-80.998,11.212-2.368,22.957-2.368,34.17,0,37.572,7.53,66.138,42.545,65.696,80.999,0,45.645-37.135,82.781-82.781,82.781Z"/></svg>