<svg width="481.99999999999994" height="476" xmlns="http://www.w3.org/2000/svg" xml:space="preserve" version="1.1" enable-background="new 0 0 512 512">

 <g>
  <title>Layer 1</title>
	<g id="svg_1"  stroke="#000" stroke-width="10">
		<path id="svg_2" d="m394.24899,60.25602c-18.77802,-17.695 -42.87201,-23.277 -67.845,-15.713c-0.00101,0 -0.00201,0 -0.00201,0l-40.47699,12.269c-29.811,9.045 -60.041,9.043 -89.853,0l-40.47701,-12.268c-24.974,-7.564 -49.06799,-1.982 -67.84499,15.713c-28.322,26.69 -39.242,74.79801 -27.82,122.56301l62.209,260.12599c2.233,9.33701 7.392,17.427 14.261,23.298l-131.39999,0c-2.761,0 -5,2.23901 -5,5c0,2.76199 2.239,5 5,5l412,0c2.76199,0 5,-2.23801 5,-5c0,-2.76099 -2.23801,-5 -5,-5l-71.401,0c6.86899,-5.871 12.02802,-13.961 14.26099,-23.298l62.20901,-260.12599c11.422,-47.76601 0.50201,-95.87401 -27.82001,-122.56401zm-214.06999,405.98599c1.573,-2.64301 2.582,-5.66699 2.83,-8.90799c2.72099,-35.51401 10.914,-77.23602 21.383,-108.88699c11.483,-34.71503 25.168,-55.44 36.608,-55.44c11.439,0 25.125,20.72498 36.60699,55.43799c10.46899,31.64801 18.66202,73.371 21.383,108.88501c0.24902,3.242 1.258,6.26999 2.832,8.91199l-121.64299,0zm232.16499,-285.74998l-62.20999,260.12599c-3.49399,14.608 -16.77899,25.62402 -30.90302,25.62402l-0.133,0c-5.26999,-0.02499 -9.72299,-4.276 -10.13699,-9.67599c-2.77701,-36.26602 -11.15402,-78.89801 -21.85901,-111.26202c-13.67398,-41.33798 -29.18399,-62.298 -46.10201,-62.298c-16.91699,0 -32.429,20.96103 -46.103,62.30002c-10.705,32.36499 -19.08099,74.99899 -21.85899,111.26401c-0.414,5.396 -4.864,9.64499 -10.14999,9.672l-0.118,0c-14.12401,0 -27.40901,-11.01602 -30.903,-25.62402l-62.21001,-260.12599c-5.32,-22.24701 -5.561,-44.89101 -0.696,-65.482c4.634,-19.615 13.503,-36.032 25.648,-47.477c11.362,-10.707 30.663,-21.728 58.087,-13.42101l40.474,12.268c31.737,9.62801 63.92101,9.62801 95.657,0l40.47501,-12.268l0,0c27.42499,-8.306 46.72699,2.713 58.08801,13.42101c12.14499,11.445 21.01398,27.862 25.64798,47.477c4.866,20.592 4.62601,43.23499 -0.694,65.482z"/>
		<path id="svg_3" d="m387.35501,106.02602c-2.608,0.908 -3.98599,3.758 -3.07901,6.366c6.33701,18.20599 6.97501,40.16 1.79501,61.81801l-8.52701,35.65799c-0.64301,2.686 1.01501,5.384 3.70001,6.026c0.39099,0.09401 0.78101,0.138 1.16599,0.138c2.26199,0 4.311,-1.543 4.85901,-3.838l8.52701,-35.658c5.61899,-23.495 4.88098,-47.442 -2.07602,-67.43099c-0.90701,-2.607 -3.755,-3.986 -6.36499,-3.079z"/>
		<path id="svg_4" d="m378.78601,83.03702c-8.224,-9.127 -17.83099,-14.077 -28.55499,-14.711c-2.776,-0.163 -5.12399,1.939 -5.28601,4.696c-0.164,2.757 1.93799,5.124 4.69501,5.28699c8.008,0.47401 15.314,4.317 21.716,11.422c0.987,1.096 2.349,1.653 3.716,1.653c1.19299,0 2.39099,-0.424 3.34598,-1.285c2.052,-1.849 2.21701,-5.011 0.36801,-7.062z"/>
		<path id="svg_5" d="m477,466.242l-30,0c-2.76199,0 -5,2.23901 -5,5c0,2.76199 2.23801,5 5,5l30,0c2.76199,0 5,-2.23801 5,-5c0,-2.76099 -2.23801,-5 -5,-5z"/>
	</g>

  <line stroke="#000" stroke-linecap="undefined" stroke-linejoin="undefined" id="svg_9" y2="96.93551" x2="332.20671" y1="48.89794" x1="235.60133" stroke-width="20" fill="none"/>
  <line stroke="#000" stroke-linecap="undefined" stroke-linejoin="undefined" id="svg_11" y2="308.31899" x2="172.92667" y1="286.48471" x1="133.81776" stroke-width="20" fill="none"/>
  <path stroke="#000" id="svg_13" d="m153.22771,299.22641c-4.2226,6.85892 -13.5889,22.1196 -12.66777,20.57684" opacity="undefined" stroke-linecap="undefined" stroke-linejoin="undefined" stroke-width="20" fill="none"/>
  <path stroke="#000" id="svg_12" d="m299.84738,84.32288c-42.37631,74.16497 -136.37309,239.17709 -127.129,222.49554" opacity="undefined" stroke-linecap="undefined" stroke-linejoin="undefined" stroke-width="20" fill="none"/>
  <path stroke="#000" id="svg_6" d="m262.84152,66.65855c-42.24107,73.4883 -135.93753,236.99483 -126.72296,220.46544" opacity="undefined" stroke-linecap="undefined" stroke-linejoin="undefined" stroke-width="20" fill="none"/>
  <path stroke="#000" id="svg_14" d="m284.65628,71.87947c9.17981,-16.14857 29.54193,-52.07818 27.5394,-48.44593" opacity="undefined" stroke-linecap="undefined" stroke-linejoin="undefined" stroke-width="20" fill="none"/>
  <path id="svg_15" d="m286.21368,4l57.82977,30.48653" opacity="undefined" stroke-linecap="undefined" stroke-linejoin="undefined" stroke-width="20" stroke="#000" fill="none"/>
 </g>
</svg>
