<?xml version="1.0"?><svg xmlns="http://www.w3.org/2000/svg" xmlns:xlink="http://www.w3.org/1999/xlink" version="1.0" viewBox="0 0 48 48" enable-background="new 0 0 48 48" xml:space="preserve"><g id="Layer_1"/><g id="_x32_2_x5F_Award"><path d="M38.123,15.299c-0.501-0.586-0.974-1.14-1.188-1.656c-0.23-0.555-0.295-1.308-0.363-2.106   c-0.113-1.324-0.242-2.826-1.262-3.846c-1.021-1.021-2.522-1.149-3.848-1.262c-0.797-0.068-1.55-0.133-2.105-0.363   c-0.516-0.214-1.068-0.688-1.654-1.188C26.673,3.998,25.506,3,24,3s-2.672,0.998-3.702,1.877c-0.586,0.5-1.139,0.974-1.655,1.188   c-0.555,0.231-1.308,0.295-2.105,0.363c-1.325,0.113-2.826,0.242-3.847,1.262s-1.149,2.522-1.262,3.847   c-0.068,0.797-0.132,1.55-0.363,2.105c-0.214,0.516-0.688,1.069-1.188,1.655C8.998,16.328,8,17.494,8,19s0.998,2.672,1.877,3.702   c0.5,0.586,0.974,1.139,1.188,1.655c0.231,0.555,0.295,1.308,0.363,2.105c0.113,1.325,0.242,2.827,1.262,3.847   c1.02,1.021,2.522,1.149,3.847,1.263c0.797,0.068,1.55,0.133,2.106,0.364c0.516,0.214,1.069,0.687,1.655,1.188   C21.328,34.003,22.495,35,24,35c1.506,0,2.672-0.997,3.701-1.877c0.586-0.501,1.14-0.974,1.655-1.188   c0.556-0.231,1.31-0.296,2.106-0.364c1.324-0.113,2.826-0.241,3.846-1.262c1.021-1.021,1.149-2.522,1.263-3.847   c0.068-0.798,0.133-1.55,0.364-2.106c0.214-0.516,0.687-1.069,1.188-1.655C39.003,21.672,40,20.505,40,19   S39.003,16.328,38.123,15.299z M36.603,21.402c-0.579,0.679-1.179,1.38-1.514,2.188c-0.351,0.842-0.432,1.789-0.51,2.703   c-0.093,1.079-0.181,2.099-0.685,2.604c-0.504,0.504-1.522,0.591-2.602,0.684c-0.915,0.078-1.861,0.159-2.704,0.509   c-0.808,0.336-1.509,0.936-2.187,1.515C25.562,32.321,24.767,33,24,33s-1.562-0.679-2.402-1.397   c-0.679-0.579-1.38-1.179-2.187-1.514c-0.843-0.351-1.789-0.432-2.703-0.51c-1.079-0.093-2.099-0.181-2.603-0.685   c-0.504-0.504-0.591-1.523-0.684-2.603c-0.078-0.914-0.159-1.86-0.509-2.703c-0.335-0.808-0.935-1.509-1.515-2.187   C10.679,20.562,10,19.768,10,19s0.679-1.562,1.397-2.403c0.58-0.678,1.179-1.379,1.515-2.187c0.35-0.842,0.431-1.788,0.509-2.703   c0.092-1.079,0.18-2.099,0.684-2.603c0.504-0.504,1.524-0.591,2.603-0.684c0.915-0.078,1.86-0.159,2.703-0.509   c0.808-0.335,1.509-0.935,2.187-1.515C22.438,5.679,23.232,5,24,5s1.562,0.679,2.402,1.398c0.679,0.579,1.379,1.179,2.187,1.514   c0.843,0.35,1.788,0.431,2.703,0.509c1.079,0.092,2.1,0.18,2.604,0.684s0.591,1.523,0.683,2.603c0.079,0.915,0.16,1.861,0.51,2.703   c0.336,0.808,0.936,1.509,1.515,2.188C37.321,17.438,38,18.233,38,19S37.321,20.562,36.603,21.402z M24,9c-5.514,0-10,4.486-10,10   s4.486,10,10,10c5.514,0,10-4.486,10-10S29.514,9,24,9z M24,27c-4.411,0-8-3.589-8-8s3.589-8,8-8s8,3.589,8,8S28.411,27,24,27z    M28.749,17.905l-2.463,1.782l1.125,2.829c0.181,0.455-0.333,0.872-0.741,0.601L24,21.348l-2.669,1.77   c-0.408,0.271-0.922-0.146-0.741-0.601l1.125-2.829l-2.463-1.782C18.858,17.621,19.059,17,19.544,17h3.043l0.941-2.665   c0.157-0.445,0.786-0.445,0.943,0L25.413,17h3.043C28.941,17,29.142,17.621,28.749,17.905z M34,34v10   c0,0.404-0.243,0.77-0.617,0.924C33.259,44.976,33.129,45,33,45c-0.26,0-0.516-0.102-0.707-0.293L30,42.414l-2.293,2.293   c-0.391,0.391-1.023,0.391-1.414,0L24,42.414l-2.293,2.293c-0.391,0.391-1.023,0.391-1.414,0L18,42.414l-2.293,2.293   c-0.287,0.286-0.717,0.372-1.09,0.217C14.244,44.77,14,44.404,14,44V34c0-0.553,0.448-1,1-1s1,0.447,1,1v7.586l1.293-1.293   c0.391-0.391,1.023-0.391,1.414,0L21,42.586l2.293-2.293c0.391-0.391,1.023-0.391,1.414,0L27,42.586l2.293-2.293   c0.391-0.391,1.023-0.391,1.414,0L32,41.586V34c0-0.553,0.447-1,1-1S34,33.447,34,34z"/></g></svg>